<?xml version='1.0' encoding='UTF-8'?>
<svg xmlns="http://www.w3.org/2000/svg" version="1.1" viewBox="0 0 1024 1024">
<path d="M0 0 C337.92 0 675.84 0 1024 0 C1024 337.92 1024 675.84 1024 1024 C686.08 1024 348.16 1024 0 1024 C0 686.08 0 348.16 0 0 Z " fill="#FCFCFD" transform="translate(0,0)"/>
<path d="M0 0 C22.77 0 45.54 0 69 0 C71.041875 4.7025 73.08375 9.405 75.1875 14.25 C76.70473031 17.63742952 76.70473031 17.63742952 78.2260437 21.02302551 C80.76064242 26.66916766 83.17152881 32.28497171 85.14530945 38.15386963 C89.42402379 51.98898591 89.42402379 51.98898591 99.25537109 61.84033203 C106.59567014 64.58724368 113.97700258 65.80997736 121.77148438 66.62988281 C125.25845812 67.02962965 128.55832811 67.73130236 131.94628906 68.62841797 C135.98932103 69.35993184 138.94949474 69.53191718 142.67456055 67.64575195 C143.56957275 67.01628662 144.46458496 66.38682129 145.38671875 65.73828125 C146.90531494 64.6865271 146.90531494 64.6865271 148.45458984 63.61352539 C149.5214502 62.85418701 150.58831055 62.09484863 151.6875 61.3125 C152.79802972 60.53695194 153.90953067 59.76279285 155.02197266 58.98999023 C157.27141534 57.42497717 159.51581712 55.85313433 161.75634766 54.27539062 C166.43327103 50.99457429 171.15355733 47.77873021 175.875 44.5625 C178.02119125 43.09263602 180.16668296 41.6217571 182.31201172 40.15063477 C186.94380861 36.99332225 186.94380861 36.99332225 188.92700195 37.22900391 C191.18413265 38.06848321 193.10533661 39.09183995 195.16796875 40.3359375 C195.97049072 40.81780518 196.7730127 41.29967285 197.59985352 41.79614258 C198.45377686 42.31716553 199.3077002 42.83818848 200.1875 43.375 C201.07300537 43.91084717 201.95851074 44.44669434 202.87084961 44.9987793 C210.73357449 49.78249345 218.46220546 54.75969105 226.15917969 59.80419922 C228.81390436 61.528714 231.50185343 63.19918549 234.1875 64.875 C235.79314825 65.91438146 237.39751582 66.95574688 239 68 C240.00740234 68.60328125 240.00740234 68.60328125 241.03515625 69.21875 C242.75 70.375 242.75 70.375 245 73 C244.63624289 80.24021798 242.97706201 87.21450602 241.3828125 94.26953125 C241.12498993 95.42692307 240.86716736 96.58431488 240.60153198 97.77677917 C240.05739027 100.21537402 239.51097178 102.65346182 238.96240234 105.09106445 C238.13018707 108.78944853 237.30469735 112.48928181 236.48046875 116.18945312 C235.94831059 118.57040058 235.41577086 120.95126279 234.8828125 123.33203125 C234.51701584 124.968554 234.51701584 124.968554 234.14382935 126.63813782 C232.73892602 132.87470043 231.22991142 139.06434845 229.55490112 145.23442078 C228.94896182 148.25436988 228.80053028 150.92751855 229 154 C230.55280893 156.38581729 230.55280893 156.38581729 232.8125 158.5 C236.76642217 162.62965204 240.41022383 166.87454053 243.9375 171.375 C244.64579956 172.26735352 244.64579956 172.26735352 245.3684082 173.17773438 C247.58929077 176.01595384 249.45744179 178.74968794 251 182 C290.78085803 175.93883409 330.06099926 167.81780679 369.32421875 159.05078125 C372.76558176 158.28328346 376.20695849 157.51584747 379.64837646 156.74859619 C381.89354538 156.2471303 384.13837552 155.74414535 386.38287354 155.23968506 C389.57318881 154.52337463 392.76491464 153.81370182 395.95703125 153.10546875 C396.90325851 152.89126785 397.84948578 152.67706696 398.8243866 152.45637512 C399.69936295 152.26347397 400.57433929 152.07057281 401.47583008 151.87182617 C402.23301834 151.70253098 402.9902066 151.53323578 403.77033997 151.35881042 C406.2126399 150.9657807 408.53039694 150.93930897 411 151 C408.32704149 153.10762665 405.72282381 154.74389386 402.6484375 156.19921875 C401.38688843 156.79911621 401.38688843 156.79911621 400.09985352 157.41113281 C399.20065186 157.83233398 398.3014502 158.25353516 397.375 158.6875 C396.43132568 159.13319336 395.48765137 159.57888672 394.51538086 160.03808594 C388.17877325 163.01688322 381.80204294 165.89106118 375.38989258 168.70263672 C369.01743647 171.51180238 362.71959076 174.46971746 356.41995239 177.43798828 C341.58832616 184.42090262 326.62087912 191.07346511 311.61547852 197.67333984 C299.04960625 203.20155656 286.51361272 208.79201193 274 214.4375 C270.67325225 215.93766673 267.34641663 217.43763852 264.01953125 218.9375 C263.23245285 219.29236984 262.44537445 219.64723969 261.63444519 220.01286316 C247.76319264 226.26430713 233.85004982 232.42133651 219.92863464 238.56010437 C216.98652717 239.8575037 214.04464095 241.15540367 211.1027832 242.45336914 C207.21670409 244.16792514 203.32969886 245.88035796 199.44213867 247.59155273 C197.64238599 248.38518731 195.84266143 249.17888564 194.04296875 249.97265625 C193.21913696 250.33465118 192.39530518 250.69664612 191.54650879 251.0696106 C190.03070929 251.7388988 188.52011289 252.42015603 187.01620483 253.11575317 C185 254 185 254 181.49731445 255.12670898 C178.79220805 256.74246234 178.79220805 256.74246234 178.41423035 259.41004944 C178.14937378 261.95344099 178.00959176 264.44379541 178 267 C181.59740639 266.23724885 185.19480598 265.47446564 188.79220009 264.71165657 C190.12563289 264.42891036 191.45906668 264.14616885 192.79250145 263.86343193 C200.91359536 262.14144417 209.03456266 260.41886209 217.15527344 258.69506836 C220.20377224 258.04799642 223.25227596 257.40094765 226.30078125 256.75390625 C227.44063288 256.51196061 227.44063288 256.51196061 228.60351181 256.26512718 C237.26481469 254.42681292 245.92675786 252.59164041 254.59056091 250.76513672 C258.70312168 249.89791945 262.81520157 249.028436 266.92721558 248.15863037 C268.75585483 247.77244877 270.58471906 247.38733035 272.41384888 247.003479 C299.10567562 241.40098055 325.58339607 234.93153694 352.02844238 228.27722168 C355.57189777 227.38614839 359.11605815 226.49788787 362.66015625 225.609375 C367.85340164 224.30715017 373.04627196 223.00344664 378.23876953 221.69824219 C379.36800842 221.41670288 380.49724731 221.13516357 381.66070557 220.84509277 C383.9241286 220.27227642 386.18334125 219.68260786 388.43841553 219.07775879 C389.5130304 218.79331909 390.58764526 218.50887939 391.69482422 218.21582031 C393.12216385 217.82876923 393.12216385 217.82876923 394.57833862 217.43389893 C397 217 397 217 400 218 C387.31204145 224.70653051 374.58593406 231.3328112 361.8125 237.875 C360.96892944 238.30754089 360.12535889 238.74008179 359.25622559 239.18572998 C348.16403599 244.87249702 337.04763445 250.50409833 325.88354492 256.04858398 C319.3211805 259.31549639 312.83017678 262.70083876 306.35839844 266.14306641 C299.62729571 269.70700817 292.81982691 273.10952116 286 276.5 C277.86702409 280.54576588 269.77554944 284.64820987 261.75390625 288.91015625 C253.70590762 293.17803431 245.60177202 297.33546606 237.5 301.5 C228.27716068 306.24317082 219.05488269 310.98650453 209.875 315.8125 C209.15505859 316.19019531 208.43511719 316.56789063 207.69335938 316.95703125 C206.39688885 317.64110493 205.10625283 318.33641348 203.82324219 319.04541016 C202 320 202 320 199.99707031 320.79443359 C197.75634979 321.68160548 197.75634979 321.68160548 195 324 C194.41196199 326.45259271 194.41196199 326.45259271 194.30810547 329.14770508 C194.24299774 330.05450516 194.17789001 330.96130524 194.11080933 331.89558411 C194.05595871 332.93726997 194.05595871 332.93726997 194 334 C244.93945715 322.84722836 244.93945715 322.84722836 295.75 311.125 C296.63479034 310.91538635 297.51958069 310.70577271 298.43118286 310.48980713 C308.09730563 308.19395513 317.74299974 305.83595229 327.35546875 303.32421875 C328.17316742 303.11095947 328.99086609 302.8977002 329.83334351 302.67797852 C333.70154589 301.66676018 337.56624573 300.64419329 341.42675781 299.60400391 C342.79358013 299.24236309 344.16043988 298.8808637 345.52734375 298.51953125 C346.71062256 298.20089111 347.89390137 297.88225098 349.11303711 297.55395508 C352 297 352 297 355 298 C349.13070036 303.95733913 343.29919822 309.86962636 336.92578125 315.29296875 C333.88063747 317.99221385 331.07157299 320.92061063 328.21484375 323.81640625 C326.22340539 325.77974671 324.18697422 327.62079669 322.0625 329.4375 C317.10582137 333.68322069 312.56976002 338.34596161 308 343 C309.12827209 346.38481626 309.67225349 346.73458816 312.53491211 348.61621094 C313.28336899 349.11393005 314.03182587 349.61164917 314.80296326 350.12445068 C315.61950882 350.65572571 316.43605438 351.18700073 317.27734375 351.734375 C318.11785782 352.29062561 318.95837189 352.84687622 319.82435608 353.41998291 C322.52377815 355.20430935 325.23033739 356.97744447 327.9375 358.75 C330.60596045 360.50726118 333.27290736 362.26679965 335.93960571 364.0267334 C337.65186436 365.15664843 339.36472587 366.28565048 341.07821655 367.41369629 C346.79052052 371.17974485 352.43279727 375.02195606 358 379 C356.37781598 386.67473286 354.37035929 394.21899863 352.3046875 401.78515625 C351.94864146 403.09503862 351.59277913 404.40497094 351.23709106 405.71495056 C350.30844553 409.1331789 349.37733493 412.55073085 348.44567871 415.96813965 C347.49222042 419.46728058 346.54113731 422.96706693 345.58984375 426.46679688 C343.72886378 433.31182519 341.86527432 440.15614053 340 447 C327.03051697 448.7482449 314.03380896 449.97083199 301 451.125 C298.95310209 451.30833819 296.90622692 451.49193032 294.859375 451.67578125 C289.90650648 452.12010799 284.95334543 452.56102318 280 453 C279.73968994 453.72058594 279.47937988 454.44117188 279.21118164 455.18359375 C277.95113716 458.11362259 276.45731326 460.45805868 274.62109375 463.0625 C273.95070068 464.01850098 273.28030762 464.97450195 272.58959961 465.95947266 C271.87940674 466.96284668 271.16921387 467.9662207 270.4375 469 C269.71892822 470.02786621 269.00035645 471.05573242 268.26000977 472.11474609 C265.18142196 476.51490957 262.08941895 480.90132415 258.90625 485.2265625 C258.47900635 485.81566406 258.0517627 486.40476562 257.61157227 487.01171875 C256.52224175 488.50855719 255.41609613 489.99311894 254.30859375 491.4765625 C252.65950269 494.65660079 253.06851903 495.59113734 254 499 C254.85047063 501.17045384 255.75494742 503.32007936 256.6953125 505.453125 C256.96398636 506.06662811 257.23266022 506.68013123 257.50947571 507.31222534 C258.08224427 508.61921609 258.65709237 509.92529719 259.2338562 511.23052979 C260.12953902 513.26028613 261.01731369 515.29332104 261.90258789 517.32763672 C264.03389587 522.22441183 266.16710331 527.1202515 268.33056641 532.00292969 C269.37946739 534.37147285 270.41101704 536.74668291 271.4375 539.125 C271.73736816 539.78532227 272.03723633 540.44564453 272.34619141 541.12597656 C274.18453764 545.4420938 274.18453764 545.4420938 273.39135742 547.84008789 C271.48964794 550.79225911 269.10450771 553.16090783 266.6171875 555.61328125 C265.81754074 556.41224068 265.81754074 556.41224068 265.0017395 557.2273407 C263.87266483 558.35339921 262.74116559 559.4770312 261.60742188 560.59838867 C259.89664129 562.29108744 258.19382508 563.99147489 256.4921875 565.69335938 C251.34567539 570.82257585 246.19159347 575.88501102 240.63305664 580.57299805 C238.84735656 582.1333833 237.2069605 583.79229102 235.5625 585.5 C232.93074646 588.14379818 230.22558617 590.65481483 227.375 593.0625 C226.30378906 593.97708984 226.30378906 593.97708984 225.2109375 594.91015625 C223 596 223 596 220.65405273 595.22949219 C218.13061935 594.06050952 215.73424267 592.80449345 213.32421875 591.41796875 C211.97553711 590.64670654 211.97553711 590.64670654 210.59960938 589.85986328 C209.15811523 589.03204346 209.15811523 589.03204346 207.6875 588.1875 C205.62953188 587.02103095 203.57091615 585.85570385 201.51171875 584.69140625 C198.23321198 582.8357506 194.95764379 580.97570094 191.68994141 579.10107422 C188.46969957 577.25786867 185.23651426 575.4394437 182 573.625 C181.00444092 573.0477417 180.00888184 572.4704834 178.9831543 571.87573242 C178.03996338 571.35213135 177.09677246 570.82853027 176.125 570.2890625 C175.30257813 569.82193848 174.48015625 569.35481445 173.6328125 568.87353516 C162.79728522 565.27843903 144.29606003 575.09432237 134.55953979 579.74209595 C130.81777444 581.68832374 127.97282097 583.27290826 126.05859375 587.1953125 C124.95937202 591.49832393 125.11022611 595.85328272 125.16015625 600.27001953 C124.83762091 607.78174964 123.15894236 615.15566684 121.76794434 622.53106689 C120.93397337 627.00960695 120.16351125 631.49887014 119.390625 635.98828125 C119.12032714 637.54601626 118.84984066 639.10371857 118.57910156 640.66137695 C118.29244629 642.31399536 118.29244629 642.31399536 118 644 C105.96220616 647.06096654 93.91450883 650.07709118 81.8125 652.875 C80.89968262 653.08987061 79.98686523 653.30474121 79.04638672 653.52612305 C78.19189941 653.72117432 77.33741211 653.91622559 76.45703125 654.1171875 C75.71428955 654.28847168 74.97154785 654.45975586 74.20629883 654.63623047 C71.68723874 655.05156736 69.54609771 655.27959484 67 655 C65.42944336 653.61743164 65.42944336 653.61743164 64.08984375 651.66015625 C63.58098633 650.93521973 63.07212891 650.2102832 62.54785156 649.46337891 C62.01643555 648.67108887 61.48501953 647.87879883 60.9375 647.0625 C60.37385742 646.25216309 59.81021484 645.44182617 59.22949219 644.60693359 C58.05428255 642.91564223 56.88591232 641.21957974 55.72412109 639.51904297 C53.10551921 635.69311063 50.42653141 631.91051005 47.75 628.125 C47.26039795 627.42842285 46.7707959 626.7318457 46.26635742 626.01416016 C41.97021162 619.9122624 37.52667948 613.93269356 33 608 C27.64210565 614.9698683 22.96915603 622.19084626 18.44262695 629.71435547 C14.17070632 636.79025369 9.68547046 643.71641144 5.15161133 650.62670898 C4.62462646 651.43052002 4.0976416 652.23433105 3.5546875 653.0625 C3.08530762 653.77535156 2.61592773 654.48820313 2.13232422 655.22265625 C0.95683218 657.00015919 0.95683218 657.00015919 0 659 C-7.24291254 658.34331962 -14.02703136 656.53212888 -21.03125 654.62109375 C-22.26290894 654.28956802 -23.49456787 653.9580423 -24.7635498 653.61647034 C-28.01302787 652.74078473 -31.26118644 651.86050177 -34.50878906 650.97790527 C-37.83292639 650.07575005 -41.15872097 649.17974777 -44.484375 648.28320312 C-50.99111418 646.52776089 -57.4961819 644.76623202 -64 643 C-65.85987545 632.97395011 -67.16101469 623.21581121 -67.3671875 613.01171875 C-67.02376586 593.51793097 -67.02376586 593.51793097 -74.86035156 576.72216797 C-81.38397777 571.5881178 -89.39700337 569.212434 -97.30859375 567.10253906 C-102.25785293 565.62430795 -106.60983214 563.43614165 -111.1953125 561.05224609 C-114.51639946 559.8062603 -115.672385 559.85100289 -119 561 C-121.60993108 562.20834104 -124.14391623 563.45500764 -126.6875 564.7890625 C-127.42645508 565.17057465 -128.16541016 565.55208679 -128.92675781 565.94515991 C-131.2875619 567.1659752 -133.64373319 568.3954545 -136 569.625 C-137.55310248 570.42893225 -139.10648549 571.2323228 -140.66015625 572.03515625 C-142.19027207 572.82780097 -143.72022156 573.62076685 -145.25 574.4140625 C-145.99805908 574.80160706 -146.74611816 575.18915161 -147.5168457 575.58843994 C-151.00236475 577.40318509 -154.46404472 579.24468365 -157.8828125 581.18261719 C-158.47674805 581.51595062 -159.07068359 581.84928406 -159.68261719 582.19271851 C-161.26032304 583.08367736 -162.82973458 583.98927972 -164.3984375 584.89599609 C-167 586 -167 586 -169.09643555 585.9128418 C-171.5799803 584.72187427 -173.14682745 583.20756216 -175.08203125 581.24609375 C-175.84966797 580.47330078 -176.61730469 579.70050781 -177.40820312 578.90429688 C-178.20162109 578.09025391 -178.99503906 577.27621094 -179.8125 576.4375 C-180.59431641 575.65052734 -181.37613281 574.86355469 -182.18164062 574.05273438 C-186.3895521 569.7885768 -190.41622593 565.42353056 -194.3269043 560.88696289 C-197.07846104 557.78368228 -200.03749621 554.90007477 -203 552 C-207.39723943 547.6538575 -211.68681438 543.28824991 -215.66796875 538.55078125 C-217.0414872 536.95169965 -218.50278857 535.48276307 -220 534 C-217.79151121 526.6011639 -214.64875909 519.80607609 -211.24514771 512.89523315 C-210.29915293 510.97287742 -209.36126469 509.04675701 -208.42553711 507.11938477 C-205.72421422 501.55862494 -203.00408957 496.00742101 -200.265625 490.46484375 C-199.53090083 488.95589913 -198.79649157 487.44680111 -198.0625 485.9375 C-197.72710205 485.27298828 -197.3917041 484.60847656 -197.04614258 483.92382812 C-195.36265923 480.4390315 -194.75477285 478.65449015 -196 475 C-197.38862176 472.43527092 -198.81389041 469.93642432 -200.3125 467.4375 C-200.74675293 466.7045874 -201.18100586 465.9716748 -201.62841797 465.21655273 C-205.68930609 458.41137576 -209.93127946 451.72100492 -214.23950195 445.07006836 C-214.73023193 444.30573486 -215.22096191 443.54140137 -215.7265625 442.75390625 C-216.38519287 441.73792358 -216.38519287 441.73792358 -217.05712891 440.70141602 C-218 439 -218 439 -218 437 C-218.6233876 436.92927277 -219.24677521 436.85854553 -219.88905334 436.78567505 C-226.39520478 436.04633545 -232.90036911 435.29873084 -239.4050293 434.54638672 C-241.8305685 434.26693403 -244.25634905 433.98956774 -246.68237305 433.71435547 C-250.1756283 433.31770382 -253.66793804 432.91348094 -257.16015625 432.5078125 C-258.23959 432.3868924 -259.31902374 432.26597229 -260.4311676 432.14138794 C-265.81845943 431.50805799 -270.84196994 430.69272813 -276 429 C-280.29623875 412.00572817 -284.58897254 395.00963495 -288.60421753 377.9463501 C-289.05578133 376.02853453 -289.51138105 374.1116707 -289.96704102 372.19482422 C-290.37200806 370.45869873 -290.37200806 370.45869873 -290.78515625 368.6875 C-291.02113525 367.68074219 -291.25711426 366.67398437 -291.50024414 365.63671875 C-292 363 -292 363 -292 359 C-290.63671875 357.77416992 -290.63671875 357.77416992 -288.6875 356.73046875 C-287.95313721 356.32393066 -287.21877441 355.91739258 -286.4621582 355.49853516 C-285.649646 355.06589355 -284.83713379 354.63325195 -284 354.1875 C-282.26203107 353.22417534 -280.52646907 352.25649917 -278.79296875 351.28515625 C-277.39377197 350.50229248 -277.39377197 350.50229248 -275.96630859 349.70361328 C-270.6589835 346.65550509 -265.49030674 343.38674607 -260.3125 340.125 C-259.31025391 339.49489014 -258.30800781 338.86478027 -257.27539062 338.21557617 C-255.37749915 337.02112016 -253.48493719 335.81814059 -251.59863281 334.60546875 C-249 333 -249 333 -246.56542969 331.76953125 C-242.55358261 329.72919242 -242.55358261 329.72919242 -240.22875977 326.04931641 C-239.81735652 323.59261325 -239.68410067 321.24013931 -239.625 318.75 C-239.51596377 316.87237613 -239.40657304 314.99477282 -239.296875 313.1171875 C-239.25240234 312.12686523 -239.20792969 311.13654297 -239.16210938 310.11621094 C-238.99396126 306.88391805 -238.73696095 303.66942217 -238.453125 300.4453125 C-238.35692871 299.3512207 -238.26073242 298.25712891 -238.16162109 297.12988281 C-238.06703613 296.05577148 -237.97245117 294.98166016 -237.875 293.875 C-237.53223198 289.91844194 -237.24295309 285.96388346 -237 282 C-236.9170166 281.01153076 -236.8340332 280.02306152 -236.74853516 279.00463867 C-236.41236781 273.02392604 -236.41236781 273.02392604 -239.3515625 267.94140625 C-240.4173769 267.11470296 -241.51078083 266.32270676 -242.625 265.5625 C-243.82795171 264.64731516 -245.02973617 263.73059442 -246.23046875 262.8125 C-246.8548584 262.35230469 -247.47924805 261.89210938 -248.12255859 261.41796875 C-251.1823622 259.10700134 -254.04834509 256.58105115 -256.9375 254.0625 C-258.09820689 253.06553073 -259.25967184 252.06944336 -260.421875 251.07421875 C-262.91436626 248.93434737 -265.40322448 246.7903172 -267.890625 244.64453125 C-268.52621338 244.09724365 -269.16180176 243.54995605 -269.81665039 242.98608398 C-271.03579516 241.93621626 -272.25379009 240.88501135 -273.47045898 239.83227539 C-275.91398237 237.72959219 -278.31367187 235.79088542 -281 234 C-280.39725598 227.91222125 -277.99303975 222.63833565 -275.66796875 217.046875 C-275.23494949 215.99147522 -274.80193024 214.93607544 -274.35578918 213.84869385 C-272.97219514 210.48002697 -271.58005893 207.11496948 -270.1875 203.75 C-269.26178798 201.50154153 -268.33665166 199.25284595 -267.41210938 197.00390625 C-266.10241816 193.81837489 -264.7919493 190.6331939 -263.47685242 187.44989014 C-261.20340793 181.94567334 -258.96981562 176.42990379 -256.80635071 170.88140869 C-256 169 -256 169 -255 168 C-242.34563126 168.08867248 -229.45014961 170.77117452 -216.9440918 172.49145508 C-213.93314144 172.90455509 -210.92167483 173.31372268 -207.91015625 173.72265625 C-206.98928726 173.85076187 -206.06841827 173.97886749 -205.11964417 174.1108551 C-199.07320954 175.0652871 -199.07320954 175.0652871 -193 175 C-190.92857656 172.9347507 -189.29006457 171.01618563 -187.5625 168.6875 C-186.80175171 167.69979614 -186.80175171 167.69979614 -186.02563477 166.69213867 C-184.33000869 164.47608562 -182.66273043 162.24082899 -181 160 C-180.0733252 158.75718262 -180.0733252 158.75718262 -179.12792969 157.48925781 C-175.53709925 152.66550852 -171.97321564 147.82288967 -168.43530273 142.96020508 C-167.43807288 141.59827983 -166.38997532 140.27275076 -165.30517578 138.97949219 C-163.53072277 136.28827164 -164.01938361 134.26888049 -164.54638672 131.18701172 C-165.31941657 127.45999266 -166.15031977 123.75817953 -167.0625 120.0625 C-167.37707153 118.76469604 -167.37707153 118.76469604 -167.69799805 117.44067383 C-168.17895307 115.45836606 -168.66192612 113.47654726 -169.14648438 111.49511719 C-170.13973646 107.42778401 -171.12498768 103.35854842 -172.109375 99.2890625 C-174.0686984 91.19168171 -176.03311137 83.09554647 -178 75 C-171.47435991 70.16675722 -164.90295535 65.52694544 -158 61.25 C-156.3566431 60.22286058 -154.71341797 59.19551033 -153.0703125 58.16796875 C-152.23790039 57.64895996 -151.40548828 57.12995117 -150.54785156 56.59521484 C-147.98023288 54.98762377 -145.42235462 53.36558078 -142.8671875 51.73828125 C-142.03058594 51.2062207 -141.19398438 50.67416016 -140.33203125 50.12597656 C-138.74767934 49.11780987 -137.16427279 48.10815522 -135.58203125 47.09667969 C-133.39936014 45.71181914 -131.20285435 44.35248419 -129 43 C-128.20368164 42.49581543 -127.40736328 41.99163086 -126.58691406 41.47216797 C-125.79768555 40.99537598 -125.00845703 40.51858398 -124.1953125 40.02734375 C-123.48648926 39.590271 -122.77766602 39.15319824 -122.04736328 38.70288086 C-120 38 -120 38 -118.06323242 38.66064453 C-117.38236572 39.10263184 -116.70149902 39.54461914 -116 40 C-115.19844482 40.50781006 -114.39688965 41.01562012 -113.57104492 41.53881836 C-108.35572211 45.03724168 -103.16988171 48.5685288 -98.02297974 52.16665649 C-95.18766049 54.14355325 -92.33970796 56.10179451 -89.48999023 58.05786133 C-88.02713471 59.06868974 -86.57014523 60.08805578 -85.11889648 61.11547852 C-82.98627584 62.62235874 -80.83407546 64.09661926 -78.67578125 65.56640625 C-78.03804276 66.02769424 -77.40030426 66.48898224 -76.74324036 66.96424866 C-72.35103515 69.89612333 -69.39737053 70.39915305 -64.19654846 69.49034119 C-63.10925697 69.2476223 -63.10925697 69.2476223 -62 69 C-60.75516846 68.72542969 -59.51033691 68.45085937 -58.2277832 68.16796875 C-57.01437256 67.84441406 -55.80096191 67.52085937 -54.55078125 67.1875 C-53.88966843 67.01371826 -53.2285556 66.83993652 -52.54740906 66.66088867 C-50.46746436 66.11324926 -48.38990081 65.55720372 -46.3125 65 C-44.22407112 64.44411684 -42.13517362 63.89013011 -40.04545593 63.33911133 C-38.15728964 62.84061913 -36.27061346 62.33649269 -34.3840332 61.83203125 C-31 61 -31 61 -27.82666016 60.92749023 C-24.49342231 59.83378056 -24.30618209 59.32828575 -22.77758789 56.31665039 C-22.06818766 54.67063133 -21.38493207 53.01319465 -20.72265625 51.34765625 C-20.34821884 50.45952744 -19.97378143 49.57139862 -19.58799744 48.65635681 C-18.39049387 45.80046195 -17.22652253 42.93218072 -16.0625 40.0625 C-15.28401698 38.19508005 -14.50343834 36.32853225 -13.72070312 34.46289062 C-8.95819086 23.04514027 -4.48550875 11.53416537 0 0 Z " fill="#D25E1D" transform="translate(454,176)"/>
<path d="M0 0 C9.71396834 0.50079889 19.42964791 0.7359064 29.1533978 0.95495933 C49.08244145 1.4095611 68.98824779 2.17836133 88.89739394 3.16919798 C89.1140073 13.62394415 89.1140073 13.62394415 87.72332168 18.72535032 C87.4653984 19.69622083 87.20747512 20.66709135 86.94173598 21.66738218 C86.65768905 22.68634077 86.37364211 23.70529936 86.08098769 24.75513548 C85.78888412 25.84285749 85.49678054 26.93057951 85.19582534 28.0512628 C84.25342489 31.55205953 83.29427049 35.04801967 82.33489394 38.54419798 C81.36196317 42.1410797 80.39325496 45.73908095 79.4248445 49.33718199 C78.78944261 51.69697268 78.15262387 54.05638234 77.51435256 56.41539854 C74.84143964 66.30900973 72.3241247 76.23295397 69.94011855 86.1999597 C68.60246636 91.70772306 67.00872798 96.9064332 64.89739394 102.16919798 C60.54762431 99.94598239 56.89376449 97.43273305 53.14739394 94.29419798 C45.84852182 88.20183341 38.15629223 82.66127551 30.48040175 77.05689329 C26.07013775 73.83381566 21.67132375 70.59521756 17.27239394 67.35669798 C16.448683 66.75188596 15.62497207 66.14707395 14.77630019 65.5239343 C13.64128066 64.68898435 13.64128066 64.68898435 12.48333144 63.83716673 C11.47858779 63.09889646 11.47858779 63.09889646 10.45354629 62.34571165 C8.89739394 61.16919798 8.89739394 61.16919798 7.89739394 60.16919798 C5.74995846 60.07494202 3.59938368 60.0517715 1.44988418 60.05567259 C0.44017058 60.05545355 0.44017058 60.05545355 -0.58994126 60.05523008 C-2.8246639 60.05592919 -5.05930415 60.06372145 -7.29401231 60.07154173 C-8.83957968 60.07340591 -10.38514763 60.07482981 -11.9307158 60.07582945 C-16.00617682 60.07965458 -20.08160243 60.08948481 -24.15704942 60.10053343 C-28.31272488 60.11074766 -32.46840605 60.11532709 -36.62409043 60.12036985 C-44.78361193 60.13110709 -52.94310459 60.14818344 -61.10260606 60.16919798 C-61.5901654 61.604758 -62.07539317 63.04111003 -62.55963731 64.47779173 C-62.83009873 65.27757444 -63.10056016 66.07735716 -63.37921739 66.90137571 C-64.14505515 69.30227581 -64.70131771 71.6812102 -65.10260606 74.16919798 C-56.94293489 80.7813453 -48.71354923 87.26556335 -40.28693223 93.53443235 C-35.27970923 97.26688206 -30.33619665 101.07403895 -25.41510606 104.91919798 C-11.21645003 116.00463986 3.14283902 126.87512206 17.57512832 137.65406126 C23.19513416 141.86239105 28.74679535 146.15039303 34.27239394 150.48169798 C39.99131489 154.96119936 45.77432464 159.30270353 51.71355605 163.48511595 C56.83076303 167.09405472 61.83472464 170.84383668 66.83367324 174.61426634 C72.28241075 178.72026263 77.77460503 182.76396104 83.28972793 186.78028196 C87.79676863 190.06857266 87.79676863 190.06857266 88.89739394 191.16919798 C89.62445455 198.86688193 89.615133 206.65755848 89.75670791 214.38619608 C89.82336646 217.96249378 89.91806282 221.5327785 90.08391738 225.10596555 C91.2119566 250.03205245 91.2119566 250.03205245 85.76848769 257.00367063 C82.80767767 260.04091768 79.58244101 262.46009892 76.0202024 264.74617475 C70.29653256 268.58303298 65.8993054 273.00467986 61.87111831 278.58976072 C55.14471026 287.39028723 48.28655045 294.92017206 36.95392668 296.8081618 C25.52743745 298.16792456 13.96850434 297.74731179 2.49248338 297.39986461 C-2.885314 297.26084924 -8.26348085 297.24929955 -13.64279771 297.22330564 C-23.79482545 297.15534742 -33.94154313 296.97543053 -44.09124839 296.75361687 C-55.66031154 296.50635921 -67.22964986 296.38642115 -78.800704 296.2763173 C-102.57093116 296.04732401 -126.33646916 295.66122669 -150.10260606 295.16919798 C-149.63112703 289.88038876 -149.16048036 284.68360082 -147.92267442 279.50879759 C-147.68803483 278.51383772 -147.45339524 277.51887785 -147.21164536 276.49376768 C-146.95781083 275.44693311 -146.7039763 274.40009855 -146.44244981 273.32154173 C-146.17669145 272.20296278 -145.91093308 271.08438383 -145.63712144 269.93190855 C-144.77775903 266.32196509 -143.9091476 262.71432234 -143.04010606 259.10669798 C-142.44675083 256.62374459 -141.85389816 254.14067105 -141.2615416 251.65747923 C-139.8118528 245.58795629 -138.35435071 239.52034697 -136.89325547 233.45356077 C-136.17344464 230.46346189 -135.45538431 227.47295154 -134.73834825 224.48218626 C-133.63409557 219.87701095 -132.52639956 215.2726792 -131.41510606 210.66919798 C-131.25525224 210.00636808 -131.09539842 209.34353819 -130.93070054 208.66062254 C-126.34364542 189.67363749 -126.34364542 189.67363749 -123.10260606 187.16919798 C-119.6758691 188.69658882 -117.04419324 190.71250969 -114.16510606 193.10669798 C-113.19702012 193.90978391 -112.22893418 194.71286985 -111.23151231 195.54029173 C-107.45392434 198.70716765 -103.69233321 201.89300645 -99.93634629 205.08545774 C-96.56583512 207.94653667 -93.16314836 210.76110287 -89.72760606 213.54419798 C-85.90423796 216.65208199 -82.16020697 219.83587372 -78.44830918 223.0749597 C-75.9017914 225.29653777 -73.34378897 227.50464119 -70.78424668 229.71119016 C-69.33319772 230.96927152 -67.89620785 232.24353485 -66.46198106 233.52076048 C-65.72463731 234.14724485 -64.98729356 234.77372923 -64.22760606 235.41919798 C-63.33428575 236.20036985 -63.33428575 236.20036985 -62.42291856 236.99732298 C-54.57013163 240.96337698 -43.5397219 239.29746113 -34.91119981 239.26685423 C-33.35464611 239.26498587 -31.79809183 239.26356394 -30.24153733 239.26256651 C-26.17276939 239.2587742 -22.10403794 239.2489725 -18.03528428 239.23786253 C-13.87218302 239.22757723 -9.70907578 239.22305373 -5.54596543 239.2180261 C2.60183765 239.20734684 10.74961124 239.19031056 18.89739394 239.16919798 C19.09075332 238.56591673 19.28411269 237.96263548 19.48333144 237.34107298 C19.74372207 236.54185423 20.00411269 235.74263548 20.27239394 234.91919798 C20.52762832 234.13029173 20.78286269 233.34138548 21.04583144 232.52857298 C21.89739394 230.16919798 21.89739394 230.16919798 22.99895644 228.05982298 C24.11199848 226.06646869 24.11199848 226.06646869 23.89739394 223.16919798 C21.59932759 221.03677082 21.59932759 221.03677082 18.52239394 218.85669798 C17.31723313 217.95924494 16.11284794 217.0607497 14.90911269 216.16138548 C14.25861953 215.67895384 13.60812636 215.1965222 12.93792129 214.69947141 C9.36004554 212.01627864 5.85416474 209.24099463 2.33489394 206.48169798 C-4.92058306 200.8183392 -12.26335519 195.28012749 -19.63995957 189.77588743 C-25.17747369 185.63573499 -30.65782188 181.43041182 -36.10260606 177.16919798 C-44.82952434 170.34365918 -53.68218789 163.69447439 -62.56159043 157.06910032 C-65.10572453 155.16686631 -67.64410569 153.25721201 -70.18073106 151.34497923 C-81.0583944 143.14893289 -92.02933932 135.098717 -103.10260606 127.16919798 C-104.44383451 126.20577132 -105.78498287 125.24223315 -107.12604356 124.27857298 C-113.51968528 119.4972314 -113.51968528 119.4972314 -120.49323106 115.70435423 C-123.10260606 113.16919798 -123.10260606 113.16919798 -123.41510606 110.8899011 C-123.38077396 108.7398533 -123.29615711 106.59044957 -123.18268418 104.44312376 C-123.01172908 100.26216203 -123.45444406 96.21816129 -123.89912629 92.06401724 C-125.98024429 70.70286206 -125.52342899 49.54711652 -111.89506364 31.98958963 C-109.42977918 29.07956566 -106.87316201 26.31068193 -104.22760606 23.56372923 C-103.54390081 22.84325171 -103.54390081 22.84325171 -102.84638333 22.10821909 C-75.18508409 -6.74156322 -36.99290993 -1.94168789 0 0 Z " fill="#FCFCFC" transform="translate(512.1026060581207,344.8308020234108)"/>
<path d="M0 0 C0.64179199 0.35191406 1.28358398 0.70382812 1.94482422 1.06640625 C8.1614007 4.46715439 14.40144861 7.82082194 20.65600586 11.15112305 C31.46392882 16.91144401 42.23583301 22.73173452 52.9375 28.6875 C53.9785791 29.26306641 55.0196582 29.83863281 56.09228516 30.43164062 C64.75274503 35.2783861 69.57244293 39.32523904 74.5 47.9375 C75.55445889 49.73917799 76.61050286 51.53992903 77.66796875 53.33984375 C78.21243652 54.27038574 78.7569043 55.20092773 79.31787109 56.15966797 C82.0768348 60.81827229 84.94774783 65.40600192 87.8125 70 C88.89507865 71.75226609 89.97712853 73.504859 91.05859375 75.2578125 C92.81634095 78.10379627 94.59475666 80.93269586 96.41015625 83.7421875 C97.05855469 84.77601563 97.70695312 85.80984375 98.375 86.875 C98.91898437 87.71804688 99.46296875 88.56109375 100.0234375 89.4296875 C103.05276931 97.40288882 97.67291288 111.03626832 96.03662109 119.14477539 C95.60183466 121.30859995 95.17136357 123.47329693 94.74560547 125.63891602 C91.65170874 141.37086077 87.74827565 156.68478935 83 172 C80.47693725 168.74606398 78.79992034 165.61043657 77.14453125 161.828125 C76.88201065 161.23362045 76.61949005 160.63911591 76.34901428 160.02659607 C75.78932038 158.75888138 75.23169017 157.49025387 74.67596436 156.22079468 C73.22245703 152.90326979 71.75128588 149.59364401 70.27734375 146.28515625 C69.98941956 145.63879715 69.70149536 144.99243805 69.40484619 144.32649231 C67.3427488 139.71783915 65.18429037 135.17665694 62.875 130.6875 C59.54570993 124.21511184 56.50905296 117.62696538 53.5 111 C50.164801 103.66290235 46.76466117 96.38390403 43.11572266 89.19799805 C40.11597926 83.27705816 37.24039218 77.29946334 34.375 71.3125 C33.62150269 69.73988403 33.62150269 69.73988403 32.8527832 68.13549805 C30.94083723 64.14414293 29.02945579 60.15251795 27.11999512 56.15997314 C17.74521716 36.46264689 17.74521716 36.46264689 7.6875 17.109375 C5.90605321 13.82689435 4.18894664 10.5184781 2.5 7.1875 C2.0153125 6.23230469 1.530625 5.27710938 1.03125 4.29296875 C0 2 0 2 0 0 Z " fill="#F37A41" transform="translate(226,501)"/>
<path d="M0 0 C2.54664826 2.54664826 2.80183651 4.44218657 3.67993164 7.9309082 C3.99688492 9.17592606 4.3138382 10.42094391 4.64039612 11.70368958 C4.98050002 13.06934103 5.32041543 14.43503943 5.66015625 15.80078125 C6.01305029 17.19856571 6.36652834 18.59620284 6.7205658 19.99369812 C7.6520084 23.67766947 8.57479763 27.36375795 9.49603271 31.05029297 C10.2475238 34.05139905 11.00512158 37.05094679 11.76307011 40.05042744 C12.66832914 43.63335943 13.57089362 47.21696786 14.47265625 50.80078125 C14.64412737 51.48201868 14.81559849 52.16325611 14.9922657 52.8651371 C15.47942312 54.80336986 15.96448591 56.74212871 16.44946289 58.6809082 C16.72544815 59.78296097 17.00143341 60.88501373 17.28578186 62.02046204 C20.9620045 77.35673579 20.9620045 77.35673579 17.05078125 83.95703125 C16.15980671 85.25738602 15.24568346 86.54209581 14.3125 87.8125 C13.29810992 89.28201376 12.28651725 90.75346143 11.27734375 92.2265625 C10.47466064 93.38140137 10.47466064 93.38140137 9.65576172 94.55957031 C6.74886182 98.84405445 4.07626077 103.27170224 1.375 107.6875 C0.27270292 109.46519577 -0.83015035 111.24254679 -1.93359375 113.01953125 C-3.81572547 116.05980869 -5.66427041 119.11458867 -7.47265625 122.19921875 C-8.21083309 123.42454207 -8.94910638 124.6498073 -9.6875 125.875 C-10.59048828 127.41800781 -10.59048828 127.41800781 -11.51171875 128.9921875 C-17.9382786 136.76055655 -27.77885612 141.30661045 -36.4375 146.1875 C-46.10848718 151.69904112 -55.61116792 157.39924186 -64.9765625 163.4140625 C-65.97091309 164.05263184 -65.97091309 164.05263184 -66.98535156 164.70410156 C-68.40070058 165.61450784 -69.81392931 166.52821476 -71.22558594 167.44433594 C-71.94262695 167.90356445 -72.65966797 168.36279297 -73.3984375 168.8359375 C-74.04216309 169.25149902 -74.68588867 169.66706055 -75.34912109 170.09521484 C-77 171 -77 171 -79 171 C-78.37252327 166.92093227 -77.04036707 163.674483 -75.2265625 159.9765625 C-74.65470215 158.80254883 -74.0828418 157.62853516 -73.49365234 156.41894531 C-72.87079745 155.15428248 -72.24791262 153.8896344 -71.625 152.625 C-70.98453806 151.31379422 -70.34473402 150.00226689 -69.70556641 148.69042969 C-68.41441745 146.0410179 -67.12103126 143.39271731 -65.82617188 140.74511719 C-63.31093568 135.59513671 -60.8405508 130.42391408 -58.375 125.25 C-55.6581174 119.55257527 -52.93510188 113.85859842 -50.1796875 108.1796875 C-43.69950983 94.8014668 -37.45460954 81.32946021 -31.33886719 67.78173828 C-28.10822928 60.62637285 -24.84369066 53.48968725 -21.5131073 46.38023376 C-19.25291646 41.55305856 -17.03435991 36.7079915 -14.82763672 31.85620117 C-10.79346274 22.98739831 -6.6975384 14.17726967 -2.2421875 5.51171875 C-0.91404082 2.97062216 -0.91404082 2.97062216 0 0 Z " fill="#F37A41" transform="translate(307,323)"/>
<path d="M0 0 C0 3 0 3 -1.46875 4.54296875 C-2.1390625 5.08566406 -2.809375 5.62835938 -3.5 6.1875 C-6.47876659 8.678546 -9.28376938 11.22448657 -12 14 C-15.2215855 17.27202128 -18.58592145 20.29316055 -22.06640625 23.28515625 C-24.53120671 25.47111059 -26.81848488 27.80537685 -29.12475586 30.15600586 C-30.93574075 31.9368116 -32.80126636 33.60200864 -34.7265625 35.2578125 C-38.87394868 38.86365492 -42.8831817 42.59863804 -46.875 46.375 C-54.03130568 53.11346762 -61.24686574 59.76221882 -68.6875 66.1875 C-72.00555049 69.06807933 -75.20505941 72.06129713 -78.39916992 75.07739258 C-80.99196746 77.51833221 -83.60466845 79.93719845 -86.22265625 82.35107422 C-87.78791275 83.80323663 -89.33310855 85.2769586 -90.875 86.75390625 C-92.1125 87.86572266 -92.1125 87.86572266 -93.375 89 C-94.06335938 89.639375 -94.75171875 90.27875 -95.4609375 90.9375 C-102.54147157 93.90043118 -114.19709691 87.76683108 -121.15234375 85.46484375 C-122.50221553 85.02136132 -123.8521982 84.57821631 -125.20228577 84.13539124 C-128.01276365 83.21259606 -130.82229922 82.28700738 -133.63110352 81.35913086 C-137.23334409 80.16920185 -140.83726325 78.98445912 -144.44180965 77.80153561 C-147.22085112 76.88926377 -149.99932266 75.97526736 -152.7775898 75.06064034 C-154.10718225 74.6229534 -155.43687715 74.18557758 -156.76667595 73.74851799 C-158.61703604 73.13986659 -160.4666188 72.52885353 -162.31616211 71.91772461 C-163.36823349 71.57067978 -164.42030487 71.22363495 -165.5042572 70.86607361 C-168 70 -168 70 -170 69 C-170 68.34 -170 67.68 -170 67 C-169.04440186 66.64373535 -168.08880371 66.2874707 -167.10424805 65.92041016 C-156.98063086 62.13928363 -146.88596812 58.28769476 -136.8125 54.375 C-136.04151978 54.07585693 -135.27053955 53.77671387 -134.47619629 53.46850586 C-122.54548585 48.83392378 -110.68414844 44.05554234 -98.88989258 39.08349609 C-92.34168439 36.33314041 -85.75338123 33.74955747 -79.09672546 31.27760315 C-71.8797477 28.59516994 -64.7209426 25.77169796 -57.5625 22.9375 C-56.15060593 22.37958707 -54.73865806 21.82181027 -53.32666016 21.26416016 C-51.13090128 20.39694163 -48.93518781 19.52960992 -46.73968506 18.66174316 C-41.41872159 16.55867972 -36.09480036 14.46322812 -30.76953125 12.37109375 C-29.26423327 11.77939928 -27.75894345 11.18768406 -26.25366211 10.59594727 C-24.08484667 9.74337224 -21.91592978 8.89106193 -19.74661255 8.0397644 C-17.74474849 7.25405789 -15.7434166 6.46700962 -13.7421875 5.6796875 C-12.6063623 5.23351074 -11.47053711 4.78733398 -10.30029297 4.32763672 C-6.84219805 2.93651968 -3.42059814 1.48054121 0 0 Z " fill="#F37A41" transform="translate(483,248)"/>
<path d="M0 0 C2.3128762 0.52927993 4.61167271 1.12293212 6.89453125 1.76953125 C8.95305036 2.0919522 11.01178776 2.33358457 13.08181763 2.5700531 C16.75955285 2.99455051 20.41875664 3.54885001 24.08203125 4.08203125 C24.84944641 4.19213531 25.61686157 4.30223938 26.40753174 4.41567993 C36.70382508 5.89758612 46.88341765 7.61587583 57.03125 9.921875 C62.61516349 11.14706128 68.23035272 11.99668104 73.89453125 12.76953125 C73.89453125 13.42953125 73.89453125 14.08953125 73.89453125 14.76953125 C58.3642657 23.52238579 42.78079286 31.28628758 26.29612732 38.10783386 C17.46900973 41.7627307 8.68835655 45.52749038 -0.09988403 49.27462769 C-3.16932233 50.58260805 -6.2396536 51.88846851 -9.31030273 53.19360352 C-18.5340655 57.11444279 -27.75515415 61.04100759 -36.9609375 65.00390625 C-37.71856888 65.33003906 -38.47620026 65.65617188 -39.25679016 65.9921875 C-40.36850838 66.47075195 -40.36850838 66.47075195 -41.50268555 66.95898438 C-53.41800164 72.0876695 -65.35089309 77.16533329 -77.35546875 82.08203125 C-78.45084961 82.53263916 -79.54623047 82.98324707 -80.67480469 83.44750977 C-85.7694994 85.51738136 -90.77548872 87.40692336 -96.10546875 88.76953125 C-92.59721863 84.38421861 -88.881527 80.58760978 -84.69921875 76.8359375 C-77.84903672 70.62828229 -71.35078204 64.09433264 -64.85546875 57.51953125 C-62.62415838 55.26126028 -60.38927816 53.00660494 -58.15234375 50.75390625 C-57.66256042 50.25582458 -57.1727771 49.75774292 -56.66815186 49.24456787 C-53.958584 46.51640016 -51.17426452 43.94564838 -48.25146484 41.44628906 C-43.76559596 37.56088558 -39.76686563 33.29287276 -35.72265625 28.95703125 C-33.30718614 26.42652981 -30.88503891 23.90252625 -28.46289062 21.37841797 C-26.80584982 19.63696064 -25.1615888 17.88325445 -23.53027344 16.11767578 C-8.13213736 -0.5013081 -8.13213736 -0.5013081 0 0 Z " fill="#F37A41" transform="translate(591.10546875,664.23046875)"/>
<path d="M0 0 C1.96785159 1.69516358 3.86700794 3.40348573 5.75 5.1875 C6.74381594 6.11953109 7.73862703 7.05050206 8.734375 7.98046875 C9.25451172 8.46692871 9.77464844 8.95338867 10.31054688 9.45458984 C12.14012754 11.12818025 14.01156425 12.74550729 15.890625 14.36328125 C20.84531308 18.67589185 25.40311126 23.35239078 30 28.0390625 C33.88116542 31.96571032 37.85762158 35.69354815 42.03955078 39.29785156 C45.2439284 42.08003348 48.34201258 44.97278252 51.4375 47.875 C52.45360352 48.82632813 52.45360352 48.82632813 53.49023438 49.796875 C59.47672633 55.43767585 65.29994254 61.23386228 71.06420898 67.10107422 C74.98170445 71.06882466 78.99747966 74.83557594 83.23828125 78.45703125 C84.90872994 79.92006281 86.52273299 81.34091552 88 83 C88 83.66 88 84.32 88 85 C81.4483968 83.68176998 75.36753524 81.87156229 69.125 79.5 C68.12597656 79.12254639 67.12695312 78.74509277 66.09765625 78.35620117 C28.73141248 64.01335424 -8.02048536 47.7922799 -44.17515564 30.64053345 C-52.87680223 26.51340988 -61.62758992 22.51040181 -70.4296875 18.6015625 C-72.98963662 17.45322646 -75.51038071 16.29043094 -78 15 C-78 14.34 -78 13.68 -78 13 C-76.92363281 12.81824219 -75.84726562 12.63648438 -74.73828125 12.44921875 C-64.95642839 10.77502999 -55.19671406 9.03857334 -45.63671875 6.33056641 C-38.40209808 4.28696982 -31.13736825 2.75693263 -23.75 1.375 C-22.61820312 1.1584375 -21.48640625 0.941875 -20.3203125 0.71875 C-17.21622126 0.1299177 -14.10892682 -0.43738106 -11 -1 C-10.26974609 -1.1453418 -9.53949219 -1.29068359 -8.78710938 -1.44042969 C-5.13401833 -2.10374388 -3.04616407 -2.19794359 0 0 Z " fill="#F37A41" transform="translate(395,666)"/>
<path d="M0 0 C7.35192222 2.35165198 14.53388528 5.08824672 21.72140503 7.89541626 C24.5049265 8.98226806 27.29052641 10.06374475 30.07603455 11.14549255 C31.47102446 11.68724241 32.8659327 12.22920262 34.26075745 12.77137756 C53.75452504 20.34788417 73.35473703 27.64497169 92.93998718 34.98069763 C100.91513088 37.96784512 108.88922871 40.95777653 116.86303711 43.94848633 C120.25560697 45.22091572 123.64835233 46.49287533 127.04125977 47.7644043 C134.2644301 50.47164444 141.48656338 53.18143509 148.703125 55.90625 C149.82847656 56.3305127 150.95382812 56.75477539 152.11328125 57.19189453 C154.12700409 57.95142916 156.14008299 58.71267449 158.15234375 59.47607422 C159.01472656 59.8010791 159.87710938 60.12608398 160.765625 60.4609375 C161.49555664 60.73728027 162.22548828 61.01362305 162.97753906 61.29833984 C164.96748706 61.98872016 166.94947054 62.52285091 169 63 C169 63.66 169 64.32 169 65 C160.61230286 67.59331621 152.22378667 70.18396098 143.83421803 72.77121639 C139.93847089 73.97271562 136.04301016 75.17512673 132.14819336 76.37963867 C128.38819996 77.54241807 124.62746831 78.70278002 120.86621666 79.86148262 C119.43267044 80.30356726 117.99939054 80.7465165 116.56638527 81.19035149 C114.55643361 81.81271705 112.54554973 82.43197828 110.53442383 83.05053711 C109.39080887 83.40361435 108.24719391 83.75669159 107.06892395 84.12046814 C104.3734088 84.89298368 101.77716007 85.61245227 99 86 C97.11328125 84.8828125 97.11328125 84.8828125 95.3125 83.125 C94.62414062 82.4753125 93.93578125 81.825625 93.2265625 81.15625 C92.49179687 80.4446875 91.75703125 79.733125 91 79 C89.40209353 77.53481001 87.79766672 76.07670587 86.1875 74.625 C84.91519531 73.47644531 84.91519531 73.47644531 83.6171875 72.3046875 C80.17130119 69.2702503 76.60918236 66.39407842 73.0390625 63.5078125 C69.52943112 60.61168995 66.10959082 57.62343676 62.6875 54.625 C57.89715305 50.4356448 53.03618942 46.3902387 48 42.5 C42.28933867 38.0887609 36.81940363 33.45023665 31.39453125 28.69311523 C27.82408129 25.5657172 24.21002108 22.52502053 20.5 19.5625 C15.76015503 15.72616557 11.27474281 11.65195786 6.8125 7.5 C6.13960938 6.87552979 5.46671875 6.25105957 4.7734375 5.60766602 C4.15339844 5.02557373 3.53335937 4.44348145 2.89453125 3.84375 C2.33612549 3.31974609 1.77771973 2.79574219 1.20239258 2.25585938 C0 1 0 1 0 0 Z " fill="#F37A41" transform="translate(494,250)"/>
<path d="M0 0 C0 3.19248669 -0.49103778 4.32893189 -1.92089844 7.10644531 C-2.34307144 7.93373138 -2.76524445 8.76101746 -3.20021057 9.6133728 C-3.89774696 10.95717514 -3.89774696 10.95717514 -4.609375 12.328125 C-5.08757187 13.26081207 -5.56576874 14.19349915 -6.05845642 15.15444946 C-7.61642121 18.18936568 -9.1830447 21.21971731 -10.75 24.25 C-11.81922186 26.32805341 -12.8879881 28.40634132 -13.95629883 30.48486328 C-16.96206742 36.32780588 -19.97854788 42.16515439 -23 48 C-23.54633087 49.05531921 -23.54633087 49.05531921 -24.10369873 50.13195801 C-27.7126887 57.10014942 -31.34891 64.05379455 -35 71 C-37.02363023 74.85270651 -39.04462336 78.70677675 -41.0625 82.5625 C-41.55878906 83.5105249 -42.05507813 84.4585498 -42.56640625 85.43530273 C-46.02277911 92.06285234 -49.37254207 98.73830419 -52.6875 105.4375 C-57.15959424 114.47113036 -61.94177399 123.28236604 -67 132 C-69.30252122 128.54621817 -70.19565778 125.16756133 -71.2421875 121.2109375 C-71.45183136 120.43424713 -71.66147522 119.65755676 -71.87747192 118.85733032 C-72.32214338 117.20539576 -72.76411922 115.55273359 -73.20361328 113.89941406 C-73.86004265 111.43123964 -74.52491446 108.96547373 -75.19140625 106.5 C-76.49039391 101.67416555 -77.75119391 96.83903047 -79 92 C-79.20258423 91.22531372 -79.40516846 90.45062744 -79.6138916 89.65246582 C-84.96848249 69.02433888 -84.96848249 69.02433888 -81.69091797 62.32373047 C-79.89723261 59.41780797 -77.96750983 56.68308351 -75.9375 53.9375 C-75.28072266 53.00873047 -74.62394531 52.07996094 -73.94726562 51.12304688 C-71.99925438 48.38815423 -70.00843482 45.69073803 -68 43 C-67.07586304 41.73518799 -67.07586304 41.73518799 -66.13305664 40.44482422 C-62.97026677 36.21309854 -60.21267231 32.91477959 -55.5625 30.25 C-54.43585937 29.59902344 -53.30921875 28.94804688 -52.1484375 28.27734375 C-50.76738214 27.51503708 -49.3843748 26.75626171 -48 26 C-47.15727539 25.53609863 -46.31455078 25.07219727 -45.44628906 24.59423828 C-39.41138959 21.28023329 -33.35100753 18.01505557 -27.28271484 14.76269531 C-21.6795988 11.75403119 -16.09059208 8.71935171 -10.5 5.6875 C-8.46881249 4.58712422 -6.43756842 3.48685285 -4.40625 2.38671875 C-3.55353516 1.92483154 -2.70082031 1.46294434 -1.82226562 0.98706055 C-1.22091797 0.66133057 -0.61957031 0.33560059 0 0 Z " fill="#F37A41" transform="translate(737,540)"/>
<path d="M0 0 C1.07443863 -0.00960754 2.14887726 -0.01921509 3.25587463 -0.02911377 C4.41530075 -0.03336365 5.57472687 -0.03761353 6.76928711 -0.04199219 C7.95888535 -0.04769226 9.14848358 -0.05339233 10.37413025 -0.05926514 C12.89003611 -0.0687147 15.40595434 -0.07524894 17.921875 -0.07910156 C21.78464035 -0.08883697 25.64688038 -0.11987359 29.50952148 -0.15136719 C31.95027352 -0.15789415 34.39102937 -0.16314582 36.83178711 -0.16699219 C37.99323746 -0.17933899 39.15468781 -0.19168579 40.35133362 -0.20440674 C41.95826332 -0.19990509 41.95826332 -0.19990509 43.59765625 -0.1953125 C45.01637779 -0.20078094 45.01637779 -0.20078094 46.46376038 -0.20635986 C47.21298264 -0.08508728 47.9622049 0.0361853 48.73413086 0.16113281 C49.39413086 1.15113281 50.05413086 2.14113281 50.73413086 3.16113281 C43.48447842 3.20746587 36.23485789 3.2430069 28.98508739 3.26475716 C25.61874857 3.27519601 22.25251101 3.28935691 18.88623047 3.31201172 C15.01649271 3.33621092 11.1468991 3.34760473 7.27709961 3.35644531 C6.06765182 3.36676788 4.85820404 3.37709045 3.61210632 3.38772583 C1.93070305 3.38795242 1.93070305 3.38795242 0.21533203 3.38818359 C-0.77284012 3.39262482 -1.76101227 3.39706604 -2.77912903 3.40164185 C-5.26586914 3.16113281 -5.26586914 3.16113281 -8.26586914 1.16113281 C-5.23813331 0.15188753 -3.16797556 0.02285096 0 0 Z " fill="#D36431" transform="translate(471.265869140625,403.8388671875)"/>
<path d="M0 0 C-2.7345837 2.1622833 -5.41553295 3.81091504 -8.5625 5.3046875 C-9.87383911 5.92960083 -9.87383911 5.92960083 -11.21166992 6.56713867 C-12.13181885 6.99873291 -13.05196777 7.43032715 -14 7.875 C-14.93884033 8.31755127 -15.87768066 8.76010254 -16.8449707 9.21606445 C-32.83168319 16.7096205 -32.83168319 16.7096205 -37 18 C-37.66 17.67 -38.32 17.34 -39 17 C-35.04 15.02 -31.08 13.04 -27 11 C-27.66 9.68 -28.32 8.36 -29 7 C-28.67 6.34 -28.34 5.68 -28 5 C-25.85449219 4.31396484 -25.85449219 4.31396484 -23.046875 3.7109375 C-22.03496094 3.49179687 -21.02304687 3.27265625 -19.98046875 3.046875 C-18.91441406 2.82515625 -17.84835937 2.6034375 -16.75 2.375 C-15.69941406 2.14554687 -14.64882813 1.91609375 -13.56640625 1.6796875 C-8.9568607 0.69818731 -4.73090701 -0.14027814 0 0 Z " fill="#CE4F15" transform="translate(865,327)"/>
<path d="M0 0 C-3.03764089 1.6326083 -6.08078323 3.25469108 -9.125 4.875 C-9.9809375 5.33519531 -10.836875 5.79539062 -11.71875 6.26953125 C-16.07134722 8.57975593 -20.23626578 10.64116434 -25 12 C-22.59310197 9.27324841 -20.07528977 7.88033404 -16.8125 6.3125 C-15.91144531 5.87550781 -15.01039063 5.43851562 -14.08203125 4.98828125 C-13.39496094 4.66214844 -12.70789063 4.33601563 -12 4 C-12.33 3.34 -12.66 2.68 -13 2 C-11.39935157 1.46845258 -9.79431126 0.95011647 -8.1875 0.4375 C-7.29417969 0.14746094 -6.40085937 -0.14257812 -5.48046875 -0.44140625 C-3 -1 -3 -1 0 0 Z " fill="#CB400B" transform="translate(854,394)"/>
<path d="M0 0 C0.66 0.33 1.32 0.66 2 1 C0.76110404 2.48847937 -0.4915672 3.96550105 -1.75 5.4375 C-2.79414062 6.67306641 -2.79414062 6.67306641 -3.859375 7.93359375 C-6.01343015 10.01296451 -7.08310781 10.63867326 -10 11 C-8.85455923 7.56367769 -7.7288492 6.66528415 -5 4.375 C-4.278125 3.76398437 -3.55625 3.15296875 -2.8125 2.5234375 C-2.214375 2.02070312 -1.61625 1.51796875 -1 1 C-0.67 0.67 -0.34 0.34 0 0 Z " fill="#CD4A13" transform="translate(593,603)"/>
<path d="M0 0 C-2.31 2.31 -4.62 4.62 -7 7 C-7.66 6.67 -8.32 6.34 -9 6 C-8.01 5.01 -7.02 4.02 -6 3 C-6.66 2.34 -7.32 1.68 -8 1 C-3.375 -1.125 -3.375 -1.125 0 0 Z " fill="#CD440F" transform="translate(809,474)"/>
<path d="M0 0 C-3.96 1.98 -3.96 1.98 -8 4 C-8 3.34 -8 2.68 -8 2 C-8.99 1.67 -9.98 1.34 -11 1 C-3.375 -1.125 -3.375 -1.125 0 0 Z " fill="#D45D2F" transform="translate(854,394)"/>
<path d="M0 0 C0 0.66 0 1.32 0 2 C-2.31 2.33 -4.62 2.66 -7 3 C-7.33 2.34 -7.66 1.68 -8 1 C-5.29120665 -0.35439668 -2.99066732 -0.06501451 0 0 Z " fill="#CF5119" transform="translate(722,495)"/>
<path d="M0 0 C0.33 0.99 0.66 1.98 1 3 C-0.98 3 -2.96 3 -5 3 C-5 2.34 -5 1.68 -5 1 C-5.66 0.67 -6.32 0.34 -7 0 C-3.89953913 -1.03348696 -2.94389782 -1.17755913 0 0 Z " fill="#D36223" transform="translate(848,333)"/>
</svg>
